<svg width="101" height="82" viewBox="0 0 101 82" fill="none" xmlns="http://www.w3.org/2000/svg">
<path d="M88.9615 0.205963H12.0385C8.97827 0.205963 6.04342 1.28045 3.87954 3.19304C1.71566 5.10563 0.5 7.69966 0.5 10.4045V57.9975C0.5 60.7023 1.71566 63.2964 3.87954 65.209C6.04342 67.1216 8.97827 68.196 12.0385 68.196H46.6538V74.995H35.1154C34.0953 74.995 33.117 75.3532 32.3957 75.9907C31.6744 76.6283 31.2692 77.4929 31.2692 78.3945C31.2692 79.2962 31.6744 80.1608 32.3957 80.7984C33.117 81.4359 34.0953 81.7941 35.1154 81.7941H65.8846C66.9047 81.7941 67.883 81.4359 68.6043 80.7984C69.3256 80.1608 69.7308 79.2962 69.7308 78.3945C69.7308 77.4929 69.3256 76.6283 68.6043 75.9907C67.883 75.3532 66.9047 74.995 65.8846 74.995H54.3462V68.196H88.9615C92.0217 68.196 94.9566 67.1216 97.1205 65.209C99.2843 63.2964 100.5 60.7023 100.5 57.9975V10.4045C100.5 7.69966 99.2843 5.10563 97.1205 3.19304C94.9566 1.28045 92.0217 0.205963 88.9615 0.205963ZM12.0385 7.00497H88.9615C89.9816 7.00497 90.9599 7.36313 91.6812 8.00066C92.4025 8.63819 92.8077 9.50287 92.8077 10.4045V44.3995H8.19231V10.4045C8.19231 9.50287 8.59753 8.63819 9.31882 8.00066C10.0401 7.36313 11.0184 7.00497 12.0385 7.00497ZM88.9615 61.397H12.0385C11.0184 61.397 10.0401 61.0389 9.31882 60.4013C8.59753 59.7638 8.19231 58.8991 8.19231 57.9975V51.1985H92.8077V57.9975C92.8077 58.8991 92.4025 59.7638 91.6812 60.4013C90.9599 61.0389 89.9816 61.397 88.9615 61.397Z" fill="#374151"/>
</svg>
